# xmcd CD database file
#
# Track frame offsets:
#	150
#	20803
#	41910
#	65706
#	76391
#	93263
#	109626
#	130944
#	150477
#	164250
#	179424
#	192142
#
# Disc length: 2755 seconds
#
# Revision: 5
# Processed by: cddbd v1.5.2PL0 Copyright (c) Steve Scherf et al.
# Submitted via: CDex 1.51
#
DISCID=9c0ac10c
DTITLE=Imperial Crowns - Hymn Book
DYEAR=2004
DGENRE=Blues
TTITLE0=Lil' Death
TTITLE1=The River
TTITLE2=Kingsize Jones
TTITLE3=Baby's Gone Wild
TTITLE4=Golden Girl
TTITLE5=You Don't Miss Your Water
TTITLE6=Comin' Fuh Ya
TTITLE7=Love Blues
TTITLE8=(Simply) Just A Dream
TTITLE9=Blues Au GoGo
TTITLE10=Restless Soul
TTITLE11=Mr. Jinx
EXTD=YEAR: 2004
EXTT0=
EXTT1=
EXTT2=
EXTT3=
EXTT4=
EXTT5=
EXTT6=
EXTT7=
EXTT8=
EXTT9=
EXTT10=
EXTT11=
PLAYORDER=
